<svg xmlns="http://www.w3.org/2000/svg" viewBox="0 0 1200 675"><rect width="1200" height="675" fill="#07101a"/><rect x="30" y="30" width="1140" height="615" rx="28" fill="#0d1824" stroke="#31445c" stroke-width="3"/><text x="70" y="92" fill="#9ee66b" font-family="Arial,sans-serif" font-size="28" font-weight="700">Raspberry Pi Imager • Download and launch</text><rect x="75" y="135" width="650" height="410" rx="20" fill="#f6f7f9"/><rect x="75" y="135" width="650" height="54" rx="20" fill="#d92e53"/><text x="112" y="172" fill="white" font-family="Arial" font-size="22" font-weight="700">raspberrypi.com/software</text><text x="115" y="250" fill="#20252b" font-family="Arial" font-size="34" font-weight="700">Raspberry Pi Imager</text><text x="115" y="295" fill="#5d6875" font-family="Arial" font-size="20">Install the official imaging tool on your Mac, Windows PC, or Linux computer.</text><rect x="115" y="350" width="255" height="64" rx="14" fill="#d92e53"/><text x="242" y="391" text-anchor="middle" fill="white" font-family="Arial" font-size="22" font-weight="700">Download Imager</text><rect x="785" y="155" width="315" height="320" rx="24" fill="#111d2b" stroke="#526981" stroke-width="3"/><circle cx="942" cy="250" r="76" fill="#1b6b45"/><path d="M912 250h60M942 220v60" stroke="#d7ffea" stroke-width="15" stroke-linecap="round"/><text x="942" y="370" text-anchor="middle" fill="#f8fafc" font-family="Arial" font-size="24" font-weight="700">Open Imager</text><text x="942" y="405" text-anchor="middle" fill="#aebdce" font-family="Arial" font-size="18">before selecting a card</text><path d="M720 330 C755 330 755 310 785 310" fill="none" stroke="#9ee66b" stroke-width="7" marker-end="url(#a)"/><defs><marker id="a" markerWidth="10" markerHeight="10" refX="8" refY="3" orient="auto"><path d="M0,0 L0,6 L9,3 z" fill="#9ee66b"/></marker></defs><text x="75" y="595" fill="#d9e4ef" font-family="Arial" font-size="20">Use only the official Raspberry Pi download page. The selected storage device will be erased later.</text></svg>